ply
format ascii 1.0
comment VCGLIB generated
element vertex 5
property float x
property float y
property float z
property float nx
property float ny
property float nz
property float texture_u
property float texture_v
element face 6
property list uchar int vertex_indices
end_header
0 0 0 -0.6626291 -0.6626291 -0.3490636 0.000000 0.000000
1 0 0 0.6626291 -0.6626291 -0.3490636 1.000000 0.000000
1 1 0 0.6626291 0.6626291 -0.3490636 1.000000 1.000000
0 1 0 -0.6626291 0.6626291 -0.3490636 0.000000 1.000000
0.5 0.5 1 0 0 1 0.500000 0.500000
3 1 0 3 
3 1 3 2 
3 0 1 4 
3 0 4 3 
3 3 4 2 
3 1 2 4 
