ply
format ascii 1.0
comment VCGLIB generated
element vertex 45
property float x
property float y
property float z
property float nx
property float ny
property float nz
property float texture_u
property float texture_v
element face 68
property list uchar int vertex_indices
end_header
10.8642 -22.5519 -24.8219 0.229898 0.03042634 -0.972739 0.959821 0.763197
11.4256 -34.5046 -24.8219 0.266011 -0.004782938 -0.9639581 0.970534 0.505886
3.3187 -34.4954 -25.8721 0.05507058 -0.01412466 -0.9983826 0.815838 0.506084
2.2109 -20.928 -25.8721 0.04776898 0.05816203 -0.9971637 0.794699 0.798156
10.8662 -46.454 -24.8219 0.206547 -0.03600576 -0.977774 0.959859 0.248645
2.2109 -48.0624 -25.8721 0.03438929 -0.08730326 -0.995588 0.794699 0.214020
10.0974 -13.6589 -24.2587 0.116725 0.3190861 -0.9405102 0.945189 0.954642
8.965799 -14.9471 -24.8219 0.154347 0.1707351 -0.9731529 0.923596 0.926910
0.3737 -13.3313 -24.8219 0.0304628 0.256726 -0.966004 0.759641 0.961694
0.0238 -11.8843 -24.2587 0.02867229 0.3708559 -0.9282477 0.752964 0.992844
8.951299 -54.0359 -24.8219 0.1577759 -0.1640029 -0.9737607 0.923319 0.085425
0.3443 -56.1349 -24.8219 0.05727562 -0.2327721 -0.9708433 0.759080 0.040239
-0.0113 -57.6725 -24.2587 0.05642577 -0.349909 -0.9350828 0.752295 0.007139
-14.0492 -58.0041 -24.2587 -2.09976e-06 -0.354461 -0.9350709 0.484423 0.000000
-14.0633 -56.5604 -24.8219 0.009976262 -0.2840511 -0.9587573 0.484154 0.031079
-14.1375 -48.9813 -25.8721 -0.001597519 -0.114573 -0.9934136 0.482738 0.194238
-14.1465 -34.4942 -25.8721 -0.001216579 -0.02166655 -0.9997645 0.482567 0.506109
-14.1369 -20.0092 -25.8721 -1.27831e-06 0.08148024 -0.996675 0.482750 0.817935
-14.0632 -12.9051 -24.8219 -1.98447e-06 0.298879 -0.954291 0.484156 0.970869
-36.3126 -55.3746 -24.2587 -0.177474 -0.29434 -0.9390777 0.059593 0.056607
-35.5449 -54.0421 -24.8219 -0.192226 -0.177062 -0.9652452 0.074242 0.085292
-28.464 -56.1351 -24.8219 -0.04424949 -0.245872 -0.9682918 0.209360 0.040235
-28.0754 -57.6728 -24.2587 -0.03995251 -0.3539751 -0.9344012 0.216775 0.007132
-37.58829 -46.4435 -24.8219 -0.26495 -0.06438936 -0.96211 0.035250 0.248871
-38.1837 -34.5045 -24.8219 -0.3195399 8.971585e-07 -0.9475728 0.023889 0.505888
-31.6116 -34.4957 -25.8721 -0.06633221 -0.005912606 -0.9977801 0.149298 0.506077
-30.5038 -48.0624 -25.8721 -0.06118572 -0.0811718 -0.9948204 0.170437 0.214020
-37.5882 -22.5621 -24.8219 -0.2510611 0.04573276 -0.9668903 0.035252 0.762978
-30.5038 -20.928 -25.8721 -0.03935881 0.06610516 -0.9970362 0.170437 0.798156
-35.5653 -14.947 -24.8219 -0.178513 0.188713 -0.965671 0.073853 0.926912
-28.4982 -13.3312 -24.8219 -0.0483618 0.250866 -0.966813 0.208707 0.961696
-36.6977 -54.9876 -24.2587 -0.3464721 -0.147758 -0.9263502 0.052245 0.064938
-38.9378 -46.1352 -24.2587 -0.3953611 -0.04596087 -0.9173752 0.009499 0.255508
10.4075 -13.9568 -24.2587 0.290915 0.10807 -0.9506258 0.951106 0.948229
12.5125 -22.8612 -24.2587 0.336794 0.006633501 -0.941555 0.991274 0.756539
12.9698 -34.5063 -24.2587 0.334573 -0.01357476 -0.9422721 1.000000 0.505849
12.5148 -46.1476 -24.2587 0.3261239 -0.03656644 -0.9446195 0.991318 0.255241
10.0596 -55.3506 -24.2587 0.126043 -0.3000171 -0.9455702 0.944467 0.057123
-14.0492 -11.5519 -24.2587 -2.520279e-06 0.3743149 -0.9273017 0.484423 1.000000
-39.4356 -34.5062 -24.2587 -0.399211 1.112217e-06 -0.9168591 0.000000 0.505851
-38.9376 -22.8734 -24.2587 -0.3959542 0.04579907 -0.9171274 0.009503 0.756276
-36.36029 -13.6468 -24.2587 -0.127937 0.3372421 -0.9326843 0.058683 0.954902
-28.1162 -11.8842 -24.2587 -0.03370121 0.3723551 -0.9274783 0.215997 0.992846
10.4109 -54.9968 -24.2587 0.268134 -0.148144 -0.9519231 0.951171 0.064740
-36.6985 -13.9686 -24.2587 -0.3131849 0.1761359 -0.9332156 0.052229 0.947974
3 0 1 2 
3 0 2 3 
3 2 1 4 
3 2 4 5 
3 6 7 8 
3 6 8 9 
3 5 10 11 
3 12 13 14 
3 12 14 11 
3 15 16 2 
3 15 2 5 
3 16 17 3 
3 16 3 2 
3 17 18 8 
3 17 8 3 
3 19 20 21 
3 19 21 22 
3 23 24 25 
3 23 25 26 
3 25 24 27 
3 25 27 28 
3 28 29 30 
3 22 21 14 
3 22 14 13 
3 26 25 16 
3 26 16 15 
3 25 28 17 
3 25 17 16 
3 17 28 30 
3 17 30 18 
3 31 32 23 
3 31 23 20 
3 19 31 20 
3 5 4 10 
3 0 7 33 
3 0 33 34 
3 6 33 7 
3 28 27 29 
3 1 0 34 
3 1 34 35 
3 1 35 36 
3 1 36 4 
3 7 3 8 
3 37 12 11 
3 37 11 10 
3 15 5 11 
3 15 11 14 
3 18 38 9 
3 18 9 8 
3 20 26 21 
3 32 39 24 
3 32 24 23 
3 24 39 40 
3 24 40 27 
3 41 42 30 
3 41 30 29 
3 21 26 15 
3 21 15 14 
3 42 38 18 
3 42 18 30 
3 23 26 20 
3 43 10 4 
3 43 4 36 
3 10 43 37 
3 0 3 7 
3 44 29 27 
3 44 27 40 
3 29 44 41 
